<svg xmlns="http://www.w3.org/2000/svg" width="300" height="84" viewBox="0 0 300 84">
<defs>
    <style>
      .cls-1 {
        fill: red;
        fill-rule: evenodd;
      }
    </style>
  </defs>
  <g id="Artboard_1" data-name="Artboard 1">
    <path id="aneeJian" class="cls-1" d="M28.41,56.754h0.765v-4.59a49.864,49.864,0,0,0-.425-8.5,27.033,27.033,0,0,0-.85-2.805c-2.635,3.4-6.63,9.181-8.076,11.306-1.445,2.21-2.3,3.74-2.3,4.505a3.5,3.5,0,0,0,1.02.085H28.41ZM17.019,67.55c-4.335,0-6.461-.85-8.586-2.635a9.393,9.393,0,0,1-3.06-7.4,13.721,13.721,0,0,1,1.7-6.29A86.589,86.589,0,0,1,13.7,40.943l5.781-7.481-0.17-.085c-0.68-.255-1.955-0.68-1.955-0.68-2.635-.68-5.015-2.3-5.015-5.355a5.779,5.779,0,0,1,5.78-5.44,15.744,15.744,0,0,1,3.315.51A25.009,25.009,0,0,1,32.15,27.767a24.522,24.522,0,0,1,7.225,10.116c1.19,3.06,1.445,5.015,1.53,13.941v4.93h0.255a5.371,5.371,0,0,1,5.44,5.441,5.3,5.3,0,0,1-5.44,5.355H17.019Zm1.53-8.246a5.519,5.519,0,0,1-2.3-.425,2.273,2.273,0,0,1-1.275-2.125c0-1.36,1.02-3.23,2.72-5.95,1.53-2.465,6.036-8.841,8.671-12.071a6.837,6.837,0,0,1,1.87-1.87c0.34,0,1.275,1.19,1.785,2.38a14.671,14.671,0,0,1,1.275,4,53.932,53.932,0,0,1,.425,8.926v3.06c0,2.21-.085,3.4-0.425,3.74s-1.445.34-2.89,0.34H18.549ZM41.161,65a2.8,2.8,0,0,0,2.89-2.805,2.866,2.866,0,0,0-2.89-2.89H40.4c-0.68,0-2.04,0-2.04-1.105V51.824C38.271,42.983,38.1,41.708,37,38.733a21.409,21.409,0,0,0-6.46-9.011,22.394,22.394,0,0,0-9.606-4.845,14.991,14.991,0,0,0-2.805-.425,3.173,3.173,0,0,0-3.23,2.89c0,1.615,1.445,2.465,3.06,2.89a27.124,27.124,0,0,1,2.805.935c1.02,0.425,2.3,1.105,2.3,1.36,0,0.765-1.105,1.87-2.04,3.145l-5.27,6.8a69.512,69.512,0,0,0-6.376,9.946,11.1,11.1,0,0,0-1.445,5.1,6.937,6.937,0,0,0,2.21,5.44C11.748,64.32,13.449,65,17.019,65H41.161Zm14.108,2.465A5.771,5.771,0,0,1,49.4,61.6V30.657a28.761,28.761,0,0,1,.17-3.315c0.51-3.825,2.975-5.27,5.611-5.27a5.374,5.374,0,0,1,4.42,2.635,20.1,20.1,0,0,1,8.841-2.3A18.5,18.5,0,0,1,81.281,27.6a19.981,19.981,0,0,1,5.27,12.836c0,5.015-2.3,10.8-5.865,16.236h1.785a5.44,5.44,0,1,1,0,10.881H78.56c-3.57,0-7.906,0-8.586-.085-3.315-.425-5.015-2.55-5.015-5.1,0-2.3,1.36-4.25,3.485-7.311,4.165-6.035,5.015-7.736,5.78-10.541a12.7,12.7,0,0,0,.51-3.4,7.933,7.933,0,0,0-2.465-5.7,5.905,5.905,0,0,0-4.505-1.87,6.665,6.665,0,0,0-5.015,2.125c-1.275,1.615-1.615,3.655-1.615,6.035V61.6A5.771,5.771,0,0,1,55.269,67.465Zm0-2.55A3.266,3.266,0,0,0,58.584,61.6V41.708c0-2.975.255-5.27,2.21-7.651A8.906,8.906,0,0,1,67.765,31a8.533,8.533,0,0,1,6.376,2.635,10.346,10.346,0,0,1,3.145,7.481,13.554,13.554,0,0,1-.595,4.08c-0.85,3.145-1.615,4.845-6.121,11.306-2.04,2.89-3.06,4.335-3.06,5.866,0,1.275.935,2.3,2.805,2.55C70.995,65,75.16,65,78.56,65h3.91a2.89,2.89,0,1,0,0-5.781H79.75c-2.38,0-3.315,0-3.4-.17a16.235,16.235,0,0,1,1.87-3.315c3.485-5.27,5.78-10.711,5.78-15.3A17.15,17.15,0,0,0,79.5,29.382a15.917,15.917,0,0,0-11.051-4.42,17.252,17.252,0,0,0-9.181,2.89,3.553,3.553,0,0,1-.935.595,4.646,4.646,0,0,1-.17-1.02,3.248,3.248,0,0,0-2.975-2.805c-1.445,0-2.805.85-3.06,3.06a23.274,23.274,0,0,0-.17,2.975V61.6A3.266,3.266,0,0,0,55.269,64.915Zm46.07-16.406a5.5,5.5,0,0,0,.34,1.105c1.02-1.36,1.87-2.635,2.8-4,1.105-1.53,2.3-3.145,3.57-4.93,0.935-1.275,3.741-4.93,5.441-7.566a5.612,5.612,0,0,0-1.19-.085,11.245,11.245,0,0,0-8.246,4.08A12.349,12.349,0,0,0,101,45.363,15.438,15.438,0,0,0,101.339,48.509ZM126.586,62.28a5.3,5.3,0,0,1-5.441,5.355H116.9a44.471,44.471,0,0,1-8.586-.51A21.607,21.607,0,0,1,89.438,45.108a23.182,23.182,0,0,1,6.121-15.641,22.407,22.407,0,0,1,16.407-7.226,19,19,0,0,1,8.245,1.785c3.656,1.87,6.291,4.93,6.291,8.076,0,2.72-1.7,5.185-6.206,11.221-4.08,5.44-7.14,9.691-9.095,12.411-0.255.34-.426,0.6-0.6,0.85a51.213,51.213,0,0,0,6.291.255h4.25A5.371,5.371,0,0,1,126.586,62.28Zm-25.332-8.671c-0.425,0-1.02-.935-1.36-1.7a23.332,23.332,0,0,1-1.02-2.72,15.856,15.856,0,0,1-.425-3.825,15.032,15.032,0,0,1,3.74-9.946,13.669,13.669,0,0,1,10.116-4.93,12.15,12.15,0,0,1,3.23.34A1.525,1.525,0,0,1,116.9,32.1a6.94,6.94,0,0,1-1.1,2.04c-1.615,2.55-4.59,6.545-5.7,7.991-2.72,3.655-4.59,6.63-7.225,10.116A3.184,3.184,0,0,1,101.254,53.609Zm22.782,8.671a2.867,2.867,0,0,0-2.891-2.89H116.9c-5.44,0-7.311-.34-8.841-0.765-0.935-.255-1.275-0.51-1.275-1.02,0-.255.34-0.51,2.38-3.4,1.956-2.72,5.016-6.97,9.1-12.411,4.165-5.526,5.7-7.736,5.7-9.691,0-2.21-1.871-4.335-4.846-5.781a16.385,16.385,0,0,0-7.14-1.53,19.692,19.692,0,0,0-14.537,6.376,20.5,20.5,0,0,0-5.44,13.941,19.3,19.3,0,0,0,5.1,13.516,18.257,18.257,0,0,0,11.646,5.951,41.671,41.671,0,0,0,8.161.51h4.25A2.8,2.8,0,0,0,124.036,62.28Zm15.552-13.771a5.439,5.439,0,0,0,.341,1.105c1.02-1.36,1.87-2.635,2.805-4,1.1-1.53,2.295-3.145,3.57-4.93,0.935-1.275,3.74-4.93,5.44-7.566a5.612,5.612,0,0,0-1.19-.085,11.245,11.245,0,0,0-8.245,4.08,12.35,12.35,0,0,0-3.061,8.246A15.438,15.438,0,0,0,139.588,48.509ZM164.835,62.28a5.3,5.3,0,0,1-5.44,5.355h-4.25a44.465,44.465,0,0,1-8.586-.51,21.606,21.606,0,0,1-18.871-22.017,23.183,23.183,0,0,1,6.12-15.641,22.407,22.407,0,0,1,16.406-7.226,19,19,0,0,1,8.246,1.785c3.655,1.87,6.29,4.93,6.29,8.076,0,2.72-1.7,5.185-6.205,11.221-4.08,5.44-7.141,9.691-9.1,12.411-0.255.34-.425,0.6-0.595,0.85a51.191,51.191,0,0,0,6.291.255h4.25A5.371,5.371,0,0,1,164.835,62.28ZM139.5,53.609c-0.425,0-1.02-.935-1.36-1.7a23.332,23.332,0,0,1-1.02-2.72,15.862,15.862,0,0,1-.425-3.825,15.029,15.029,0,0,1,3.741-9.946,13.668,13.668,0,0,1,10.115-4.93,12.158,12.158,0,0,1,3.231.34,1.525,1.525,0,0,1,1.36,1.275,6.94,6.94,0,0,1-1.105,2.04c-1.616,2.55-4.591,6.545-5.7,7.991-2.72,3.655-4.59,6.63-7.225,10.116A3.182,3.182,0,0,1,139.5,53.609Zm22.782,8.671a2.866,2.866,0,0,0-2.89-2.89h-4.25c-5.441,0-7.311-.34-8.841-0.765-0.935-.255-1.275-0.51-1.275-1.02,0-.255.34-0.51,2.38-3.4,1.955-2.72,5.015-6.97,9.1-12.411,4.165-5.526,5.695-7.736,5.695-9.691,0-2.21-1.87-4.335-4.845-5.781a16.387,16.387,0,0,0-7.141-1.53,19.692,19.692,0,0,0-14.536,6.376,20.5,20.5,0,0,0-5.44,13.941,19.3,19.3,0,0,0,5.1,13.516,18.257,18.257,0,0,0,11.646,5.951,41.659,41.659,0,0,0,8.161.51h4.25A2.8,2.8,0,0,0,162.285,62.28Zm5.779,17.086c-2.721,0-5.1-1.615-5.1-4.76a8.092,8.092,0,0,1,1.53-4.335c1.446-2.125,4.166-6.12,5.441-7.736,4.08-5.185,6.12-8.416,6.8-10.626,0.51-1.785.68-3.315,0.68-10.031V14.591h-7.395a5.23,5.23,0,0,1-5.356-5.355,5.3,5.3,0,0,1,5.356-5.44h12.836c5.185,0,6.29,2.89,6.29,5.78V44.428c0,5.525-.425,9.436-2.89,14.536-1.615,3.23-5.185,7.821-8.331,11.816a66.689,66.689,0,0,1-6.885,7.651A5.356,5.356,0,0,1,168.064,79.366Zm0-2.55a2.546,2.546,0,0,0,1.53-.51,68.558,68.558,0,0,0,6.375-7.141c3.146-3.91,6.461-8.161,7.991-11.306,2.21-4.59,2.635-8.246,2.635-13.431V9.576c0-1.615-.68-3.23-3.74-3.23H170.019a2.8,2.8,0,0,0-2.805,2.89,2.725,2.725,0,0,0,2.805,2.805h7.055c1.446,0,2.3.085,2.551,0.34,0.17,0.17.34,0.68,0.34,2.21V41.878c0,6.971-.17,8.671-0.765,10.711-0.766,2.72-2.976,6.206-7.226,11.561-1.275,1.615-3.91,5.355-5.355,7.481a5.869,5.869,0,0,0-1.106,2.975A2.287,2.287,0,0,0,168.064,76.816ZM201.3,21.222a6.254,6.254,0,0,1-6.12-6.375,6.263,6.263,0,0,1,6.46-6.29,5.989,5.989,0,0,1,6.376,6.035A6.769,6.769,0,0,1,201.3,21.222Zm4.165,46.159c-2.21,0-3.4-.935-5.61-3.145a13.914,13.914,0,0,1-4.5-11.051l0.17-25.077a5.951,5.951,0,1,1,11.9,0l-0.17,24.4c0,3.06.085,3.4,1.445,5.525,1.445,2.21,1.87,3.315,1.87,4.59C210.564,65.51,207.844,67.38,205.463,67.38ZM201.3,18.671a4.212,4.212,0,0,0,4.165-4.08,3.539,3.539,0,0,0-3.825-3.485,3.76,3.76,0,0,0-3.91,3.74A3.7,3.7,0,0,0,201.3,18.671Zm4.165,46.159a2.44,2.44,0,0,0,2.551-2.21c0-.765-0.34-1.53-1.446-3.23-1.785-2.72-1.87-3.23-1.87-6.886l0.17-24.4a3.4,3.4,0,1,0-6.8,0L197.9,53.184a11.617,11.617,0,0,0,3.74,9.266C203.338,64.15,204.188,64.83,205.463,64.83Zm30.091-8.076h0.766v-4.59a49.727,49.727,0,0,0-.426-8.5,27.033,27.033,0,0,0-.85-2.805c-2.635,3.4-6.63,9.181-8.075,11.306-1.445,2.21-2.295,3.74-2.295,4.505a3.5,3.5,0,0,0,1.02.085h9.86Zm-11.39,10.8c-4.336,0-6.461-.85-8.586-2.635a9.393,9.393,0,0,1-3.06-7.4,13.722,13.722,0,0,1,1.7-6.29,86.589,86.589,0,0,1,6.63-10.286l5.781-7.481-0.17-.085c-0.68-.255-1.955-0.68-1.955-0.68-2.636-.68-5.016-2.3-5.016-5.355a5.779,5.779,0,0,1,5.781-5.44,15.742,15.742,0,0,1,3.315.51A25.015,25.015,0,0,1,239.3,27.767a24.522,24.522,0,0,1,7.225,10.116c1.19,3.06,1.445,5.015,1.53,13.941v4.93h0.255a5.371,5.371,0,0,1,5.441,5.441,5.3,5.3,0,0,1-5.441,5.355H224.164Zm1.53-8.246a5.527,5.527,0,0,1-2.3-.425,2.273,2.273,0,0,1-1.275-2.125c0-1.36,1.02-3.23,2.721-5.95,1.53-2.465,6.035-8.841,8.67-12.071a6.836,6.836,0,0,1,1.87-1.87c0.34,0,1.276,1.19,1.786,2.38a14.671,14.671,0,0,1,1.275,4,53.932,53.932,0,0,1,.425,8.926v3.06c0,2.21-.085,3.4-0.425,3.74s-1.445.34-2.891,0.34h-9.86ZM248.305,65a2.8,2.8,0,0,0,2.891-2.805,2.866,2.866,0,0,0-2.891-2.89H247.54c-0.68,0-2.04,0-2.04-1.105V51.824c-0.085-8.841-.255-10.116-1.36-13.091a21.41,21.41,0,0,0-6.46-9.011,22.4,22.4,0,0,0-9.606-4.845,14.988,14.988,0,0,0-2.805-.425,3.173,3.173,0,0,0-3.231,2.89c0,1.615,1.446,2.465,3.061,2.89a27.118,27.118,0,0,1,2.805.935c1.02,0.425,2.3,1.105,2.3,1.36,0,0.765-1.105,1.87-2.04,3.145l-5.271,6.8a69.512,69.512,0,0,0-6.375,9.946,11.1,11.1,0,0,0-1.445,5.1,6.937,6.937,0,0,0,2.21,5.44c1.615,1.36,3.315,2.04,6.886,2.04h24.141Zm14.108,2.465a5.771,5.771,0,0,1-5.865-5.865V30.657a28.761,28.761,0,0,1,.17-3.315c0.51-3.825,2.975-5.27,5.61-5.27a5.376,5.376,0,0,1,4.421,2.635,20.1,20.1,0,0,1,8.84-2.3A18.5,18.5,0,0,1,288.425,27.6,19.983,19.983,0,0,1,293.7,40.433c0,5.015-2.3,10.8-5.866,16.236h1.785a5.44,5.44,0,1,1,0,10.881h-3.91c-3.57,0-7.906,0-8.586-.085-3.315-.425-5.015-2.55-5.015-5.1,0-2.3,1.36-4.25,3.485-7.311,4.166-6.035,5.016-7.736,5.781-10.541a12.7,12.7,0,0,0,.51-3.4,7.933,7.933,0,0,0-2.465-5.7,5.908,5.908,0,0,0-4.506-1.87,6.664,6.664,0,0,0-5.015,2.125c-1.275,1.615-1.615,3.655-1.615,6.035V61.6A5.772,5.772,0,0,1,262.413,67.465Zm0-2.55a3.266,3.266,0,0,0,3.315-3.315V41.708c0-2.975.255-5.27,2.211-7.651a8.9,8.9,0,0,1,6.97-3.06,8.534,8.534,0,0,1,6.376,2.635,10.347,10.347,0,0,1,3.145,7.481,13.554,13.554,0,0,1-.6,4.08c-0.85,3.145-1.615,4.845-6.121,11.306-2.04,2.89-3.06,4.335-3.06,5.866,0,1.275.935,2.3,2.805,2.55C278.139,65,282.305,65,285.705,65h3.91a2.89,2.89,0,1,0,0-5.781H286.9c-2.38,0-3.315,0-3.4-.17a16.236,16.236,0,0,1,1.87-3.315c3.485-5.27,5.78-10.711,5.78-15.3a17.151,17.151,0,0,0-4.5-11.051,15.915,15.915,0,0,0-11.051-4.42,17.256,17.256,0,0,0-9.181,2.89,3.553,3.553,0,0,1-.935.595,4.646,4.646,0,0,1-.17-1.02,3.247,3.247,0,0,0-2.975-2.805c-1.445,0-2.8.85-3.06,3.06a23.274,23.274,0,0,0-.17,2.975V61.6A3.266,3.266,0,0,0,262.413,64.915Z"/>
  </g>
</svg>
