<?xml version="1.0" standalone="yes"?>
<svg version="1.1" width="474.70603674540683" height="185.4015748031496" viewBox="0.0 0.0 474.70603674540683 185.4015748031496" fill="none" stroke="none" stroke-linecap="square" stroke-miterlimit="10" xmlns="http://www.w3.org/2000/svg" xmlns:xlink="http://www.w3.org/1999/xlink"><clipPath id="p.0"><path d="m0 0l474.70602 0l0 185.40158l-474.70602 0l0 -185.40158z" clip-rule="nonzero"></path></clipPath><g clip-path="url(#p.0)"><path fill="#000000" fill-opacity="0.0" d="m0 0l474.70602 0l0 185.40158l-474.70602 0z" fill-rule="evenodd"></path><path fill="#000000" fill-opacity="0.0" d="m0 0l475.02362 0l0 159.90552l-475.02362 0z" fill-rule="evenodd"></path><path fill="#6aa84f" d="m27.6875 135.56714q-6.140625 -1.796875 -8.515625 -3.59375q-2.359375 -1.78125 -2.359375 -4.4843826q0 -2.046875 1.140625 -5.75q1.15625 -3.71875 3.390625 -8.765625q2.25 -5.0625 5.375 -11.203125q3.140625 -6.140625 7.109375 -13.1875q-3.328125 -0.125 -5.953125 -0.1875q-2.625 -0.0625 -4.28125 -0.0625q0.765625 -1.921875 4.34375 -3.328125q3.59375 -1.40625 9.484375 -2.4375q4.984375 -8.3125 10.671875 -15.859375q5.703125 -7.5625 11.453125 -13.890625q5.765625 -6.34375 11.53125 -11.140625q5.765625 -4.796875 11.015625 -7.625q0.125 -0.890625 0.1875 -1.53125q0.0625 -0.640625 0.0625 -0.890625q1.796875 0 4.796875 0.890625q3.015625 0.890625 5.890625 2.171875q2.875 1.28125 5.109375 2.625q2.25 1.34375 2.5 2.25q-4.21875 7.421875 -8.3125 22.203125q-4.09375 14.78125 -6.78125 35.390625q-0.640625 5.125 -1.09375 11.65625q-0.4375 6.515625 -0.4375 14.578125q0 2.828125 0 5.7656326q0 2.9375 0.25 6.140625q-0.25 0.125 -0.515625 0.125q-0.25 0 -1.015625 0q-1.796875 0 -4.171875 -0.578125q-2.359375 -0.5625 -4.609375 -1.40625q-2.234375 -0.828125 -3.84375 -1.859375q-1.59375 -1.015625 -1.96875 -1.78125q-0.125 -1.671875 -0.125 -3.2656326q0 -1.59375 0 -3.390625q0 -7.9375 0.5625 -16.125q0.578125 -8.203125 1.984375 -16.90625q-1.78125 -0.125 -4.734375 -0.3125q-2.9375 -0.1875 -6.59375 -0.3125q-3.640625 -0.140625 -7.8125 -0.328125q-4.15625 -0.1875 -8.125 -0.3125q-3.0625 5.75 -5.75 11.453125q-2.6875 5.6875 -4.609375 11.453125q-2.171875 6.140625 -3.515625 12.296875q-1.34375 6.1406326 -1.734375 11.515633zm49.40625 -76.93751q0.515625 -1.78125 1.21875 -4.921875q0.703125 -3.140625 1.34375 -6.59375q-3.203125 1.15625 -7.109375 4.234375q-3.90625 3.0625 -8.0625 7.609375q-4.15625 4.53125 -8.453125 10.234375q-4.28125 5.703125 -8.25 12.09375q10.75 -0.890625 24.453125 -1.15625q1.015625 -5.375 2.234375 -10.6875q1.21875 -5.3125 2.625 -10.8125zm47.23851 5.125q3.328125 1.015625 6.265625 4.546875q2.953125 3.515625 4.359375 7.734375q-1.40625 3.453125 -4.359375 8.328125q-2.9375 4.859375 -5.890625 9.921875q-2.9375 5.046875 -5.3125 9.59375q-2.359375 4.546875 -2.75 7.484375q2.046875 -2.171875 4.546875 -5.046875q2.5 -2.890625 4.859375 -5.765625q2.375 -2.875 4.421875 -5.234375q2.046875 -2.375 3.203125 -3.53125q2.421875 -2.5625 5.75 -5.953125q3.328125 -3.390625 6.96875 -6.390625q3.65625 -3.015625 7.359375 -5.125q3.71875 -2.109375 6.796875 -2.109375q3.328125 0 5.5625 2.234375q2.25 2.234375 3.53125 4.671875q0 0.25 -0.96875 0.703125q-0.953125 0.453125 -2.75 2.5q-1.796875 2.296875 -4.03125 6.328125q-2.234375 4.03125 -4.359375 8.703125q-2.109375 4.671875 -3.515625 9.546875q-1.40625 4.859375 -1.40625 8.828125q0 3.203125 0.828125 4.09375q0.84375 0.890625 2.375 0.890625q1.40625 0 2.9375 -0.640625q1.546875 -0.640625 2.4375 -0.640625q0.515625 0.265625 0.828125 1.09375q0.328125 0.828125 0.328125 1.46875q-1.03125 0.90625 -2.4375 1.796875q-1.40625 0.890625 -2.953125 1.671875q-1.53125 0.765625 -3.0 1.265625q-1.46875 0.515625 -2.625 0.515625q-3.703125 0 -6.078125 -1.09375q-2.359375 -1.078125 -3.703125 -2.875q-1.34375 -1.796875 -1.859375 -4.28125q-0.515625 -2.5 -0.515625 -5.3125q0 -1.546875 0.25 -3.453125q0.265625 -1.921875 1.03125 -4.546875q0.765625 -2.625 2.171875 -6.265625q1.40625 -3.65625 3.59375 -8.78125q-0.265625 0 -3.46875 1.796875q-3.1875 1.796875 -6.90625 5.5q-6.015625 5.765625 -10.8125 11.40625q-4.796875 5.625 -9.796875 12.53125q-2.8125 3.96875 -4.921875 6.7187576q-2.109375 2.75 -3.65625 3.65625q-2.6875 -1.546875 -3.96875 -4.2968826q-1.28125 -2.75 -1.921875 -5.6875q0 -2.4375 0.703125 -6.140625q0.71875 -3.71875 1.921875 -8.265625q1.21875 -4.546875 3.015625 -9.53125q1.796875 -5.0 3.96875 -9.984375q4.859375 -11.265625 8.890625 -17.65625q4.03125 -6.40625 5.0625 -6.921875zm94.198135 9.09375q-0.5 7.921875 -2.8125 13.625q-2.296875 5.703125 -6.59375 9.984375q-4.28125 4.28125 -10.4375 7.75q-6.140625 3.453125 -14.328125 6.65625q0 0.765625 -0.0625 1.59375q-0.0625 0.828125 -0.0625 1.734375q0 1.65625 0.25 3.453125q0.265625 1.78125 0.90625 3.328125q0.640625 1.53125 1.78125 2.5q1.15625 0.953125 2.953125 0.953125q3.453125 0 6.78125 -1.53125q3.328125 -1.546875 6.328125 -3.78125q3.015625 -2.234375 5.640625 -4.859375q2.625 -2.625 4.671875 -4.8125q1.28125 1.15625 2.171875 2.1875q-5.765625 7.671875 -12.609375 12.734375q-6.84375 5.0468826 -12.984375 6.4531326q-8.84375 -1.015625 -13.765625 -6.4531326q-4.921875 -5.4375 -4.921875 -13.125q0 -5.25 1.46875 -10.6875q1.46875 -5.4375 4.09375 -10.484375q2.625 -5.0625 6.140625 -9.546875q3.53125 -4.484375 7.5625 -7.8125q4.03125 -3.328125 8.3125 -5.234375q4.296875 -1.921875 8.515625 -1.921875q5.890625 0.765625 11.0 7.296875zm-8.828125 4.21875q-3.453125 0.515625 -7.171875 2.828125q-3.703125 2.296875 -6.96875 6.140625q-3.265625 3.828125 -5.953125 8.953125q-2.6875 5.109375 -4.21875 11.0q10.234375 -5.109375 17.015625 -12.59375q6.78125 -7.5 7.296875 -16.328125zm60.54013 -4.21875q-0.5 7.921875 -2.8125 13.625q-2.296875 5.703125 -6.59375 9.984375q-4.28125 4.28125 -10.4375 7.75q-6.140625 3.453125 -14.328125 6.65625q0 0.765625 -0.0625 1.59375q-0.0625 0.828125 -0.0625 1.734375q0 1.65625 0.25 3.453125q0.265625 1.78125 0.90625 3.328125q0.640625 1.53125 1.78125 2.5q1.15625 0.953125 2.953125 0.953125q3.453125 0 6.78125 -1.53125q3.328125 -1.546875 6.328125 -3.78125q3.015625 -2.234375 5.640625 -4.859375q2.625 -2.625 4.671875 -4.8125q1.28125 1.15625 2.171875 2.1875q-5.765625 7.671875 -12.609375 12.734375q-6.84375 5.0468826 -12.984375 6.4531326q-8.84375 -1.015625 -13.765625 -6.4531326q-4.921875 -5.4375 -4.921875 -13.125q0 -5.25 1.46875 -10.6875q1.46875 -5.4375 4.09375 -10.484375q2.625 -5.0625 6.140625 -9.546875q3.53125 -4.484375 7.5625 -7.8125q4.03125 -3.328125 8.3125 -5.234375q4.296875 -1.921875 8.515625 -1.921875q5.890625 0.765625 11.0 7.296875zm-8.828125 4.21875q-3.453125 0.515625 -7.171875 2.828125q-3.703125 2.296875 -6.96875 6.140625q-3.265625 3.828125 -5.953125 8.953125q-2.6875 5.109375 -4.21875 11.0q10.234375 -5.109375 17.015625 -12.59375q6.78125 -7.5 7.296875 -16.328125zm17.54013 24.828125q4.734375 -18.9375 9.28125 -27.703125q4.546875 -8.78125 9.53125 -8.78125q3.578125 0 8.578125 3.46875q-4.09375 7.296875 -6.34375 12.09375q-2.234375 4.796875 -3.25 8.765625q-2.1875 7.671875 -4.625 15.9375q-2.421875 8.25 -4.796875 15.8125q-2.359375 7.5468826 -4.34375 13.625008q-1.984375 6.078125 -3.140625 9.28125q-2.8125 7.546875 -5.5625 12.796875q-2.75 5.25 -5.703125 8.578125q-2.9375 3.328125 -6.203125 4.859375q-3.265625 1.546875 -7.109375 1.546875q-2.8125 0 -5.5625 -0.578125q-2.75 -0.578125 -5.171875 -1.546875q-2.4375 -0.953125 -4.359375 -2.359375q-1.921875 -1.40625 -3.078125 -2.953125q0.125 -0.890625 0.828125 -1.71875q0.703125 -0.828125 1.34375 -0.96875q2.1875 2.3125 4.5625 3.328125q2.359375 1.03125 5.6875 1.03125q4.09375 0 7.234375 -2.4375q3.125 -2.421875 6.328125 -9.40625q3.203125 -6.96875 6.90625 -19.578125q3.71875 -12.609383 8.96875 -33.093758zm20.859375 -46.59375q0 -0.640625 0.390625 -2.171875q-1.546875 -1.53125 -1.546875 -4.359375q0 -1.140625 0.3125 -3.1875q0.328125 -2.046875 0.90625 -4.421875q0.578125 -2.375 1.28125 -4.796875q0.703125 -2.4375 1.46875 -4.234375q1.546875 0 3.78125 0.84375q2.234375 0.828125 4.53125 2.171875q2.3125 1.34375 4.234375 2.953125q1.921875 1.59375 2.953125 3.0q-1.546875 1.40625 -3.859375 3.96875q-2.296875 2.5625 -4.46875 5.3125q-2.171875 2.75 -3.96875 5.125q-1.796875 2.359375 -2.171875 3.390625q-1.53125 -0.265625 -2.6875 -1.34375q-1.15625 -1.09375 -1.15625 -2.25zm6.661133 61.953125q0 -1.15625 0.1875 -2.875q0.1875 -1.734375 0.703125 -4.609375q0.515625 -2.875 1.34375 -6.96875q0.828125 -4.109375 2.109375 -9.859375q0.265625 -1.28125 1.15625 -4.09375q0.890625 -2.828125 2.359375 -5.953125q1.484375 -3.140625 3.59375 -6.078125q2.109375 -2.953125 5.0625 -4.359375q2.171875 0.515625 5.75 2.625q3.59375 2.109375 6.140625 5.828125q-2.9375 3.328125 -4.921875 6.65625q-1.984375 3.328125 -3.59375 6.90625q-1.59375 3.578125 -2.9375 7.421875q-1.34375 3.84375 -3.0 8.0625q-1.40625 3.59375 -2.5625 7.375q-1.15625 3.765625 -1.28125 6.578125q0 2.3125 -0.0625 3.265625q-0.0625 0.9531326 -0.703125 0.9531326q-0.515625 0 -2.0625 -0.6406326q-1.53125 -0.625 -3.125 -1.96875q-1.59375 -1.34375 -2.875 -3.390625q-1.28125 -2.0625 -1.28125 -4.875zm24.4375 -55.546875q0 -0.765625 0.390625 -2.3125q-0.640625 -0.640625 -1.09375 -1.90625q-0.4375 -1.28125 -0.4375 -2.3125q0 -1.15625 0.3125 -3.140625q0.328125 -1.984375 0.828125 -4.28125q0.515625 -2.3125 1.28125 -4.796875q0.78125 -2.5 1.546875 -4.546875q1.53125 0 3.765625 0.828125q2.25 0.828125 4.546875 2.171875q2.3125 1.34375 4.21875 2.953125q1.921875 1.59375 2.953125 3.0q-1.40625 1.40625 -3.71875 3.90625q-2.296875 2.5 -4.484375 5.25q-2.171875 2.75 -3.96875 5.1875q-1.78125 2.421875 -2.296875 3.453125q-1.53125 -0.25 -2.6875 -1.34375q-1.15625 -1.09375 -1.15625 -2.109375zm49.801758 12.40625q1.28125 0 3.0 0.453125q1.734375 0.453125 3.140625 1.15625q1.40625 0.703125 2.359375 1.46875q0.96875 0.765625 0.96875 1.40625q-2.5625 5.375 -4.734375 10.828125q-2.171875 5.4375 -3.71875 10.4375q-1.53125 4.984375 -2.359375 9.34375q-0.828125 4.34375 -0.828125 7.53125q0 3.59375 0.765625 5.96875q0.765625 2.359375 2.5625 3.375q-1.546875 1.03125 -3.984375 1.671875q-2.421875 0.6406326 -4.34375 0.6406326q-6.90625 0 -6.90625 -9.468758q0 -7.296875 4.859375 -19.96875q-2.5625 5.890625 -5.890625 11.078125q-3.328125 5.171875 -6.78125 9.140625q-3.453125 3.96875 -6.984375 6.46875q-3.515625 2.4843826 -6.453125 3.0000076q-4.734375 -0.25 -7.6875 -4.5312576q-2.9375 -4.296875 -2.9375 -10.953125q0 -7.171875 3.0625 -15.109375q3.078125 -7.9375 7.875 -14.71875q4.8125 -6.78125 10.4375 -11.328125q5.625 -4.546875 10.875 -4.796875q1.28125 0.390625 2.875 1.546875q1.609375 1.140625 3.078125 2.6875q1.46875 1.53125 2.5 3.140625q1.03125 1.59375 1.15625 2.734375q-5.125 0.765625 -10.5625 5.0q-5.4375 4.21875 -9.859375 10.171875q-4.421875 5.953125 -7.234375 12.734375q-2.8125 6.78125 -2.8125 12.671875q0 2.4375 1.796875 3.078125q3.703125 -0.765625 8.5625 -6.328125q4.875 -5.578125 11.78125 -17.234375q1.28125 -2.296875 2.875 -5.109375q1.609375 -2.828125 3.265625 -5.890625q1.671875 -3.078125 3.265625 -6.203125q1.609375 -3.140625 3.015625 -6.09375zm36.73813 -10.359375q3.328125 1.015625 6.265625 4.546875q2.953125 3.515625 4.359375 7.734375q-1.40625 3.453125 -4.359375 8.328125q-2.9375 4.859375 -5.890625 9.921875q-2.9375 5.046875 -5.3125 9.59375q-2.359375 4.546875 -2.75 7.484375q2.046875 -2.171875 4.546875 -5.046875q2.5 -2.890625 4.859375 -5.765625q2.375 -2.875 4.421875 -5.234375q2.046875 -2.375 3.203125 -3.53125q2.421875 -2.5625 5.75 -5.953125q3.328125 -3.390625 6.96875 -6.390625q3.65625 -3.015625 7.359375 -5.125q3.71875 -2.109375 6.796875 -2.109375q3.328125 0 5.5625 2.234375q2.25 2.234375 3.53125 4.671875q0 0.25 -0.96875 0.703125q-0.953125 0.453125 -2.75 2.5q-1.796875 2.296875 -4.03125 6.328125q-2.234375 4.03125 -4.359375 8.703125q-2.109375 4.671875 -3.515625 9.546875q-1.40625 4.859375 -1.40625 8.828125q0 3.203125 0.828125 4.09375q0.84375 0.890625 2.375 0.890625q1.40625 0 2.9375 -0.640625q1.546875 -0.640625 2.4375 -0.640625q0.515625 0.265625 0.828125 1.09375q0.328125 0.828125 0.328125 1.46875q-1.03125 0.90625 -2.4375 1.796875q-1.40625 0.890625 -2.953125 1.671875q-1.53125 0.765625 -3.0 1.265625q-1.46875 0.515625 -2.625 0.515625q-3.703125 0 -6.078125 -1.09375q-2.359375 -1.078125 -3.703125 -2.875q-1.34375 -1.796875 -1.859375 -4.28125q-0.515625 -2.5 -0.515625 -5.3125q0 -1.546875 0.25 -3.453125q0.265625 -1.921875 1.03125 -4.546875q0.765625 -2.625 2.171875 -6.265625q1.40625 -3.65625 3.59375 -8.78125q-0.265625 0 -3.46875 1.796875q-3.1875 1.796875 -6.90625 5.5q-6.015625 5.765625 -10.8125 11.40625q-4.796875 5.625 -9.796875 12.53125q-2.8125 3.96875 -4.921875 6.7187576q-2.109375 2.75 -3.65625 3.65625q-2.6875 -1.546875 -3.96875 -4.2968826q-1.28125 -2.75 -1.921875 -5.6875q0 -2.4375 0.703125 -6.140625q0.71875 -3.71875 1.921875 -8.265625q1.21875 -4.546875 3.015625 -9.53125q1.796875 -5.0 3.96875 -9.984375q4.859375 -11.265625 8.890625 -17.65625q4.03125 -6.40625 5.0625 -6.921875z" fill-rule="nonzero"></path><path fill="#6aa84f" d="m48.876663 170.3431l345.8476 -28.985474l-339.96872 35.228043z" fill-rule="evenodd"></path></g></svg>
