<svg xmlns="http://www.w3.org/2000/svg" width="299.532" height="77.781" viewBox="0 0 299.532 77.781">
<defs>
    <style>
      .cls-1 {
        fill: red;
        fill-rule: evenodd;
      }
    </style>
  </defs>
  <path id="aneeJian" class="cls-1" d="M23.98,58.012h0.791V53.287a51.106,51.106,0,0,0-.439-8.75,27.739,27.739,0,0,0-.879-2.888c-2.725,3.5-6.855,9.45-8.35,11.638-1.494,2.275-2.373,3.85-2.373,4.638a3.637,3.637,0,0,0,1.055.087h10.2ZM12.2,69.125c-4.482,0-6.68-.875-8.877-2.713A9.647,9.647,0,0,1,.161,58.8a14.074,14.074,0,0,1,1.758-6.475A89.076,89.076,0,0,1,8.775,41.737l5.977-7.7-0.176-.087c-0.7-.263-2.021-0.7-2.021-0.7-2.725-.7-5.186-2.363-5.186-5.513s2.988-5.6,5.977-5.6a16.347,16.347,0,0,1,3.428.525,25.9,25.9,0,0,1,11.074,5.513,25.244,25.244,0,0,1,7.471,10.413c1.23,3.15,1.494,5.163,1.582,14.35v5.075h0.264a5.541,5.541,0,0,1,5.625,5.6,5.468,5.468,0,0,1-5.625,5.513H12.2Zm1.582-8.488a5.729,5.729,0,0,1-2.373-.437,2.339,2.339,0,0,1-1.318-2.187c0-1.4,1.055-3.325,2.813-6.125,1.582-2.538,6.24-9.1,8.965-12.425A7.055,7.055,0,0,1,23.8,37.537c0.352,0,1.318,1.225,1.846,2.45A15.052,15.052,0,0,1,26.968,44.1a55.262,55.262,0,0,1,.44,9.188v3.15c0,2.275-.088,3.5-0.44,3.85s-1.494.35-2.988,0.35h-10.2ZM37.164,66.5a2.885,2.885,0,0,0,2.988-2.888,2.957,2.957,0,0,0-2.988-2.975H36.373c-0.7,0-2.109,0-2.109-1.138V52.937c-0.088-9.1-.264-10.413-1.406-13.475a22.04,22.04,0,0,0-6.68-9.275A23.194,23.194,0,0,0,16.246,25.2a15.562,15.562,0,0,0-2.9-.437,3.275,3.275,0,0,0-3.34,2.975c0,1.662,1.494,2.537,3.164,2.975a28.138,28.138,0,0,1,2.9.963c1.055,0.438,2.373,1.138,2.373,1.4,0,0.788-1.143,1.925-2.109,3.237l-5.449,7A71.5,71.5,0,0,0,4.292,53.55,11.387,11.387,0,0,0,2.8,58.8a7.124,7.124,0,0,0,2.285,5.6c1.67,1.4,3.428,2.1,7.119,2.1H37.164Zm14.59,2.537A5.954,5.954,0,0,1,45.689,63V31.15a29.467,29.467,0,0,1,.176-3.412c0.527-3.937,3.076-5.425,5.8-5.425a5.56,5.56,0,0,1,4.57,2.712,20.854,20.854,0,0,1,9.141-2.363A19.173,19.173,0,0,1,78.648,28,20.519,20.519,0,0,1,84.1,41.212c0,5.163-2.373,11.113-6.064,16.713h1.846a5.6,5.6,0,1,1,0,11.2H75.836c-3.692,0-8.174,0-8.877-.088-3.428-.437-5.186-2.625-5.186-5.25,0-2.363,1.406-4.375,3.6-7.525,4.307-6.213,5.186-7.963,5.977-10.85a13.016,13.016,0,0,0,.527-3.5,8.148,8.148,0,0,0-2.549-5.862,6.119,6.119,0,0,0-4.658-1.925,6.906,6.906,0,0,0-5.186,2.188c-1.318,1.663-1.67,3.763-1.67,6.213V63A5.954,5.954,0,0,1,51.753,69.038Zm0-2.625A3.37,3.37,0,0,0,55.181,63V42.525c0-3.063.264-5.425,2.285-7.875a9.227,9.227,0,0,1,7.207-3.15,8.842,8.842,0,0,1,6.592,2.713,10.626,10.626,0,0,1,3.252,7.7,13.9,13.9,0,0,1-.615,4.2c-0.879,3.238-1.67,4.988-6.328,11.638-2.109,2.975-3.164,4.463-3.164,6.038,0,1.312.967,2.363,2.9,2.625,0.7,0.088,5.01.088,8.525,0.088h4.043a2.975,2.975,0,1,0,0-5.95H77.066c-2.461,0-3.428,0-3.516-.175-0.088-.262,1.143-2.187,1.934-3.412,3.6-5.425,5.977-11.025,5.977-15.75A17.612,17.612,0,0,0,76.8,29.837a16.5,16.5,0,0,0-11.426-4.55,17.894,17.894,0,0,0-9.492,2.975,3.676,3.676,0,0,1-.967.613,4.763,4.763,0,0,1-.176-1.05,3.352,3.352,0,0,0-3.076-2.887c-1.494,0-2.9.875-3.164,3.15a23.849,23.849,0,0,0-.176,3.063V63A3.37,3.37,0,0,0,51.753,66.413ZM99.39,49.525a5.641,5.641,0,0,0,.352,1.138c1.055-1.4,1.933-2.712,2.9-4.113,1.142-1.575,2.373-3.237,3.691-5.075,0.967-1.312,3.868-5.075,5.625-7.788a5.824,5.824,0,0,0-1.23-.087,11.649,11.649,0,0,0-8.526,4.2,12.68,12.68,0,0,0-3.164,8.488A15.819,15.819,0,0,0,99.39,49.525Zm26.1,14.175a5.468,5.468,0,0,1-5.625,5.513h-4.395a46.176,46.176,0,0,1-8.877-.525A22.274,22.274,0,0,1,87.085,46.025a23.8,23.8,0,0,1,6.328-16.1,23.215,23.215,0,0,1,16.963-7.437,19.72,19.72,0,0,1,8.526,1.837c3.779,1.925,6.5,5.075,6.5,8.313,0,2.8-1.758,5.337-6.416,11.55-4.219,5.6-7.383,9.975-9.405,12.775-0.263.35-.439,0.612-0.615,0.875a53.161,53.161,0,0,0,6.5.262h4.395A5.541,5.541,0,0,1,125.494,63.7ZM99.3,54.775c-0.44,0-1.055-.963-1.406-1.75a23.957,23.957,0,0,1-1.055-2.8,16.26,16.26,0,0,1-.439-3.937,15.433,15.433,0,0,1,3.867-10.238,14.157,14.157,0,0,1,10.459-5.075,12.621,12.621,0,0,1,3.34.35,1.573,1.573,0,0,1,1.406,1.313,7.114,7.114,0,0,1-1.143,2.1c-1.669,2.625-4.746,6.737-5.888,8.225-2.813,3.763-4.746,6.825-7.471,10.413A3.288,3.288,0,0,1,99.3,54.775ZM122.857,63.7a2.957,2.957,0,0,0-2.988-2.975h-4.395c-5.625,0-7.559-.35-9.141-0.788-0.966-.262-1.318-0.525-1.318-1.05,0-.263.352-0.525,2.461-3.5,2.021-2.8,5.186-7.175,9.4-12.775,4.307-5.688,5.889-7.963,5.889-9.975,0-2.275-1.934-4.463-5.01-5.95a17.007,17.007,0,0,0-7.383-1.575,20.4,20.4,0,0,0-15.029,6.563,21.047,21.047,0,0,0-5.625,14.35A19.813,19.813,0,0,0,95,59.937a18.905,18.905,0,0,0,12.041,6.125,43.264,43.264,0,0,0,8.438.525h4.395A2.884,2.884,0,0,0,122.857,63.7ZM138.94,49.525a5.636,5.636,0,0,0,.352,1.138c1.055-1.4,1.934-2.712,2.9-4.113,1.143-1.575,2.373-3.237,3.692-5.075,0.967-1.312,3.867-5.075,5.625-7.788a5.833,5.833,0,0,0-1.231-.087,11.646,11.646,0,0,0-8.525,4.2,12.675,12.675,0,0,0-3.164,8.488A15.88,15.88,0,0,0,138.94,49.525Zm26.1,14.175a5.468,5.468,0,0,1-5.625,5.513h-4.394a46.164,46.164,0,0,1-8.877-.525,22.273,22.273,0,0,1-19.512-22.663,23.8,23.8,0,0,1,6.328-16.1,23.214,23.214,0,0,1,16.963-7.437,19.716,19.716,0,0,1,8.525,1.837c3.78,1.925,6.5,5.075,6.5,8.313,0,2.8-1.758,5.337-6.416,11.55-4.219,5.6-7.383,9.975-9.4,12.775-0.264.35-.44,0.612-0.615,0.875a53.161,53.161,0,0,0,6.5.262h4.394A5.541,5.541,0,0,1,165.044,63.7Zm-26.191-8.925c-0.44,0-1.055-.963-1.407-1.75a23.862,23.862,0,0,1-1.054-2.8,16.237,16.237,0,0,1-.44-3.937,15.434,15.434,0,0,1,3.867-10.238,14.159,14.159,0,0,1,10.459-5.075,12.616,12.616,0,0,1,3.34.35,1.574,1.574,0,0,1,1.407,1.313,7.141,7.141,0,0,1-1.143,2.1c-1.67,2.625-4.746,6.737-5.889,8.225-2.812,3.763-4.746,6.825-7.471,10.413A3.288,3.288,0,0,1,138.853,54.775ZM162.407,63.7a2.957,2.957,0,0,0-2.988-2.975h-4.394c-5.626,0-7.559-.35-9.141-0.788-0.967-.262-1.319-0.525-1.319-1.05,0-.263.352-0.525,2.461-3.5,2.022-2.8,5.186-7.175,9.405-12.775,4.307-5.688,5.889-7.963,5.889-9.975,0-2.275-1.934-4.463-5.01-5.95a17.007,17.007,0,0,0-7.383-1.575,20.4,20.4,0,0,0-15.03,6.563,21.049,21.049,0,0,0-5.625,14.35,19.811,19.811,0,0,0,5.274,13.913,18.9,18.9,0,0,0,12.041,6.125,43.264,43.264,0,0,0,8.438.525h4.394A2.884,2.884,0,0,0,162.407,63.7Zm5.977,17.588c-2.812,0-5.273-1.663-5.273-4.9a8.3,8.3,0,0,1,1.582-4.463c1.494-2.188,4.307-6.3,5.625-7.963,4.219-5.338,6.328-8.663,7.031-10.938,0.528-1.838.7-3.413,0.7-10.325V14.612h-7.647A5.4,5.4,0,0,1,164.869,9.1a5.467,5.467,0,0,1,5.537-5.6h13.272c5.361,0,6.5,2.975,6.5,5.95V45.325c0,5.688-.44,9.713-2.989,14.963-1.67,3.325-5.361,8.05-8.613,12.163a68.855,68.855,0,0,1-7.119,7.875A5.558,5.558,0,0,1,168.384,81.288Zm0-2.625a2.638,2.638,0,0,0,1.582-.525,70.486,70.486,0,0,0,6.592-7.35c3.252-4.025,6.68-8.4,8.262-11.638,2.285-4.725,2.725-8.488,2.725-13.825V9.449c0-1.663-.7-3.325-3.867-3.325H170.406a2.884,2.884,0,0,0-2.9,2.975,2.811,2.811,0,0,0,2.9,2.887H177.7c1.494,0,2.373.088,2.637,0.35,0.175,0.175.351,0.7,0.351,2.275V42.7c0,7.175-.176,8.925-0.791,11.025-0.791,2.8-3.076,6.388-7.471,11.9-1.318,1.662-4.043,5.513-5.537,7.7a6.019,6.019,0,0,0-1.142,3.063A2.359,2.359,0,0,0,168.384,78.663Zm34.365-57.226A6.521,6.521,0,0,1,203.1,8.4c4.13,0,6.591,2.887,6.591,6.213A6.983,6.983,0,0,1,202.749,21.437Zm4.307,47.513c-2.286,0-3.516-.963-5.8-3.237A14.287,14.287,0,0,1,196.6,54.337l0.175-25.813a6.153,6.153,0,0,1,12.305,0L208.9,53.637c0,3.15.088,3.5,1.495,5.688,1.494,2.275,1.933,3.413,1.933,4.725C212.329,67.025,209.517,68.95,207.056,68.95Zm-4.307-50.138a4.346,4.346,0,0,0,4.307-4.2,3.652,3.652,0,0,0-3.955-3.588,3.879,3.879,0,0,0-4.043,3.85A3.817,3.817,0,0,0,202.749,18.812Zm4.307,47.513a2.518,2.518,0,0,0,2.636-2.275c0-.787-0.351-1.575-1.494-3.325-1.845-2.8-1.933-3.325-1.933-7.087l0.175-25.113a3.516,3.516,0,0,0-7.031,0l-0.176,25.813a11.928,11.928,0,0,0,3.868,9.538C204.858,65.625,205.737,66.325,207.056,66.325Zm31.113-8.313h0.791V53.287a51.171,51.171,0,0,0-.439-8.75,27.958,27.958,0,0,0-.879-2.888c-2.725,3.5-6.856,9.45-8.35,11.638-1.494,2.275-2.373,3.85-2.373,4.638a3.639,3.639,0,0,0,1.055.087h10.2ZM226.392,69.125c-4.483,0-6.68-.875-8.877-2.713a9.645,9.645,0,0,1-3.164-7.613,14.08,14.08,0,0,1,1.757-6.475,89.071,89.071,0,0,1,6.856-10.588l5.977-7.7-0.176-.087c-0.7-.263-2.022-0.7-2.022-0.7-2.724-.7-5.185-2.363-5.185-5.513s2.988-5.6,5.976-5.6a16.347,16.347,0,0,1,3.428.525,25.9,25.9,0,0,1,11.074,5.513,25.24,25.24,0,0,1,7.471,10.413c1.231,3.15,1.494,5.163,1.582,14.35v5.075h0.264a5.541,5.541,0,0,1,5.625,5.6,5.468,5.468,0,0,1-5.625,5.513H226.392Zm1.582-8.488A5.726,5.726,0,0,1,225.6,60.2a2.339,2.339,0,0,1-1.319-2.187c0-1.4,1.055-3.325,2.813-6.125,1.582-2.538,6.24-9.1,8.965-12.425a7.07,7.07,0,0,1,1.933-1.925c0.352,0,1.319,1.225,1.846,2.45a15.038,15.038,0,0,1,1.318,4.113,55.2,55.2,0,0,1,.44,9.188v3.15c0,2.275-.088,3.5-0.44,3.85s-1.494.35-2.988,0.35h-10.2ZM251.353,66.5a2.884,2.884,0,0,0,2.988-2.888,2.957,2.957,0,0,0-2.988-2.975h-0.791c-0.7,0-2.11,0-2.11-1.138V52.937c-0.087-9.1-.263-10.413-1.406-13.475a22.031,22.031,0,0,0-6.68-9.275,23.193,23.193,0,0,0-9.931-4.988,15.575,15.575,0,0,0-2.9-.437,3.275,3.275,0,0,0-3.34,2.975c0,1.662,1.5,2.537,3.164,2.975a28.131,28.131,0,0,1,2.9.963c1.055,0.438,2.373,1.138,2.373,1.4,0,0.788-1.143,1.925-2.109,3.237l-5.45,7a71.494,71.494,0,0,0-6.592,10.238,11.4,11.4,0,0,0-1.494,5.25,7.124,7.124,0,0,0,2.285,5.6c1.67,1.4,3.428,2.1,7.12,2.1h24.961Zm14.589,2.537A5.954,5.954,0,0,1,259.878,63V31.15a29.434,29.434,0,0,1,.176-3.412c0.527-3.937,3.076-5.425,5.8-5.425a5.561,5.561,0,0,1,4.57,2.712,20.854,20.854,0,0,1,9.141-2.363A19.172,19.172,0,0,1,292.837,28a20.521,20.521,0,0,1,5.45,13.213c0,5.163-2.374,11.113-6.065,16.713h1.846a5.6,5.6,0,1,1,0,11.2h-4.043c-3.692,0-8.174,0-8.877-.088-3.428-.437-5.186-2.625-5.186-5.25,0-2.363,1.406-4.375,3.6-7.525,4.306-6.213,5.185-7.963,5.976-10.85a13,13,0,0,0,.528-3.5,8.148,8.148,0,0,0-2.549-5.862,6.121,6.121,0,0,0-4.659-1.925,6.9,6.9,0,0,0-5.185,2.188c-1.318,1.663-1.67,3.763-1.67,6.213V63A5.954,5.954,0,0,1,265.942,69.038Zm0-2.625A3.37,3.37,0,0,0,269.37,63V42.525c0-3.063.264-5.425,2.285-7.875a9.227,9.227,0,0,1,7.207-3.15,8.841,8.841,0,0,1,6.592,2.713,10.624,10.624,0,0,1,3.252,7.7,13.876,13.876,0,0,1-.615,4.2c-0.879,3.238-1.67,4.988-6.328,11.638-2.109,2.975-3.164,4.463-3.164,6.038,0,1.312.967,2.363,2.9,2.625,0.7,0.088,5.01.088,8.526,0.088h4.043a2.975,2.975,0,1,0,0-5.95h-2.813c-2.461,0-3.428,0-3.515-.175-0.088-.262,1.142-2.187,1.933-3.412,3.6-5.425,5.977-11.025,5.977-15.75a17.615,17.615,0,0,0-4.658-11.375,16.5,16.5,0,0,0-11.426-4.55,17.9,17.9,0,0,0-9.493,2.975,3.685,3.685,0,0,1-.966.613,4.758,4.758,0,0,1-.176-1.05,3.352,3.352,0,0,0-3.076-2.887c-1.5,0-2.9.875-3.165,3.15a24.05,24.05,0,0,0-.175,3.063V63A3.369,3.369,0,0,0,265.942,66.413Z" transform="translate(-0.156 -3.5)"/>
</svg>
