<svg xmlns="http://www.w3.org/2000/svg" height="276px" viewBox="0 0 1002 276">
<defs>
    <style>
      .cls-1 {
        fill: #FF3D00;
        fill-rule: evenodd;
      }
    </style>
  </defs>
  <path id="aneejian" class="cls-1" d="M82.089,170.756h2.7v-16.2c0-15.3-.3-23.4-1.5-30a95.372,95.372,0,0,0-3-9.9c-9.3,12-23.4,32.4-28.5,39.9-5.1,7.8-8.1,13.2-8.1,15.9a12.362,12.362,0,0,0,3.6.3h34.8Zm-40.2,38.1c-15.3,0-22.8-3-30.3-9.3-7.5-6.6-10.8-15.6-10.8-26.1,0-7.2,2.1-14.7,6-22.2a305.5,305.5,0,0,1,23.4-36.3l20.4-26.4-0.6-.3c-2.4-.9-6.9-2.4-6.9-2.4-9.3-2.4-17.7-8.1-17.7-18.9s10.2-19.2,20.4-19.2a55.559,55.559,0,0,1,11.7,1.8c14.1,3,25.8,9.3,37.8,18.9a86.54,86.54,0,0,1,25.5,35.7c4.2,10.8,5.1,17.7,5.4,49.2v17.4h0.9a18.954,18.954,0,0,1,19.2,19.2c0,10.8-8.4,18.9-19.2,18.9h-85.2Zm5.4-29.1a19.478,19.478,0,0,1-8.1-1.5,8.023,8.023,0,0,1-4.5-7.5c0-4.8,3.6-11.4,9.6-21,5.4-8.7,21.3-31.2,30.6-42.6,3.3-3.9,5.7-6.6,6.6-6.6,1.2,0,4.5,4.2,6.3,8.4,2.1,4.8,3.6,8.4,4.5,14.1,1.2,6.6,1.5,15.3,1.5,31.5v10.8c0,7.8-.3,12-1.5,13.2s-5.1,1.2-10.2,1.2h-34.8Zm79.8,20.1a9.867,9.867,0,0,0,10.2-9.9,10.116,10.116,0,0,0-10.2-10.2h-2.7c-2.4,0-7.2,0-7.2-3.9v-22.5c-0.3-31.2-.9-35.7-4.8-46.2a75.556,75.556,0,0,0-22.8-31.8c-10.8-8.7-21.3-14.4-33.9-17.1a52.9,52.9,0,0,0-9.9-1.5c-5.7,0-11.4,4.5-11.4,10.2s5.1,8.7,10.8,10.2a95.7,95.7,0,0,1,9.9,3.3c3.6,1.5,8.1,3.9,8.1,4.8,0,2.7-3.9,6.6-7.2,11.1l-18.6,24a245.3,245.3,0,0,0-22.5,35.1c-3.3,6.3-5.1,12.3-5.1,18,0,7.8,2.4,14.4,7.8,19.2,5.7,4.8,11.7,7.2,24.3,7.2h85.2Zm49.8,8.7a20.367,20.367,0,0,1-20.7-20.7V78.655a101.49,101.49,0,0,1,.6-11.7c1.8-13.5,10.5-18.6,19.8-18.6,6.6,0,12,3.9,15.6,9.3,9.3-4.8,20.7-8.1,31.2-8.1,16.5,0,33.6,6.6,45.3,18.3,10.8,11.1,18.6,29.7,18.6,45.3,0,17.7-8.1,38.1-20.7,57.3h6.3a19.2,19.2,0,0,1,0,38.4h-13.8c-12.6,0-27.9,0-30.3-.3-11.7-1.5-17.7-9-17.7-18,0-8.1,4.8-15,12.3-25.8,14.7-21.3,17.7-27.3,20.4-37.2a44.816,44.816,0,0,0,1.8-12,28,28,0,0,0-8.7-20.1,20.842,20.842,0,0,0-15.9-6.6c-6.9,0-13.5,2.7-17.7,7.5-4.5,5.7-5.7,12.9-5.7,21.3v70.2A20.367,20.367,0,0,1,176.888,208.556Zm0-9a11.527,11.527,0,0,0,11.7-11.7v-70.2c0-10.5.9-18.6,7.8-27,6-7.2,15-10.8,24.6-10.8,8.7,0,16.5,3,22.5,9.3a36.513,36.513,0,0,1,11.1,26.4,47.83,47.83,0,0,1-2.1,14.4c-3,11.1-5.7,17.1-21.6,39.9-7.2,10.2-10.8,15.3-10.8,20.7,0,4.5,3.3,8.1,9.9,9,2.4,0.3,17.1.3,29.1,0.3h13.8a10.2,10.2,0,0,0,0-20.4h-9.6c-8.4,0-11.7,0-12-.6-0.3-.9,3.9-7.5,6.6-11.7,12.3-18.6,20.4-37.8,20.4-54,0-13.5-6.6-29.4-15.9-39-9.9-9.9-24.6-15.6-39-15.6-11.7,0-23.1,4.2-32.4,10.2-1.8,1.2-2.7,2.1-3.3,2.1-0.3,0-.3-2.1-0.6-3.6-1.2-5.4-5.1-9.9-10.5-9.9-5.1,0-9.9,3-10.8,10.8a82.139,82.139,0,0,0-.6,10.5v109.2A11.527,11.527,0,0,0,176.888,199.556Zm162.6-57.9a19.413,19.413,0,0,0,1.2,3.9c3.6-4.8,6.6-9.3,9.9-14.1,3.9-5.4,8.1-11.1,12.6-17.4,3.3-4.5,13.2-17.4,19.2-26.7a19.806,19.806,0,0,0-4.2-.3c-11.4,0-21.6,6-29.1,14.4-6.9,7.5-10.8,18.3-10.8,29.1A54.475,54.475,0,0,0,339.488,141.655Zm89.1,48.6c0,10.8-8.4,18.9-19.2,18.9h-15c-15.3,0-21.9-.3-30.3-1.8-18.3-3-32.1-9.3-46.2-23.7-13.8-14.4-20.4-33.9-20.4-54,0-20.7,7.8-39.9,21.6-55.2a79.082,79.082,0,0,1,57.9-25.5c9.3,0,20.1,1.8,29.1,6.3,12.9,6.6,22.2,17.4,22.2,28.5,0,9.6-6,18.3-21.9,39.6-14.4,19.2-25.2,34.2-32.1,43.8-0.9,1.2-1.5,2.1-2.1,3,4.5,0.6,11.1.9,22.2,0.9h15A18.954,18.954,0,0,1,428.588,190.256Zm-89.4-30.6c-1.5,0-3.6-3.3-4.8-6a82.32,82.32,0,0,1-3.6-9.6,55.932,55.932,0,0,1-1.5-13.5,53.053,53.053,0,0,1,13.2-35.1c9-10.2,21.6-17.4,35.7-17.4a42.884,42.884,0,0,1,11.4,1.2c3,0.9,4.8,2.4,4.8,4.5,0,0.9-1.5,3.6-3.9,7.2-5.7,9-16.2,23.1-20.1,28.2-9.6,12.9-16.2,23.4-25.5,35.7C343.088,157.256,340.688,159.656,339.188,159.656Zm80.4,30.6a10.116,10.116,0,0,0-10.2-10.2h-15c-19.2,0-25.8-1.2-31.2-2.7-3.3-.9-4.5-1.8-4.5-3.6,0-.9,1.2-1.8,8.4-12,6.9-9.6,17.7-24.6,32.1-43.8,14.7-19.5,20.1-27.3,20.1-34.2,0-7.8-6.6-15.3-17.1-20.4-7.8-3.9-17.1-5.4-25.2-5.4a69.5,69.5,0,0,0-51.3,22.5,72.337,72.337,0,0,0-19.2,49.2c0,17.7,5.7,34.8,18,47.7,12.9,13.2,23.7,18.3,41.1,21,8.7,1.5,14.4,1.8,28.8,1.8h15A9.867,9.867,0,0,0,419.588,190.256Zm54.9-48.6a19.413,19.413,0,0,0,1.2,3.9c3.6-4.8,6.6-9.3,9.9-14.1,3.9-5.4,8.1-11.1,12.6-17.4,3.3-4.5,13.2-17.4,19.2-26.7a19.806,19.806,0,0,0-4.2-.3c-11.4,0-21.6,6-29.1,14.4-6.9,7.5-10.8,18.3-10.8,29.1A54.475,54.475,0,0,0,474.487,141.655Zm89.1,48.6c0,10.8-8.4,18.9-19.2,18.9h-15c-15.3,0-21.9-.3-30.3-1.8-18.3-3-32.1-9.3-46.2-23.7-13.8-14.4-20.4-33.9-20.4-54,0-20.7,7.8-39.9,21.6-55.2a79.082,79.082,0,0,1,57.9-25.5c9.3,0,20.1,1.8,29.1,6.3,12.9,6.6,22.2,17.4,22.2,28.5,0,9.6-6,18.3-21.9,39.6-14.4,19.2-25.2,34.2-32.1,43.8-0.9,1.2-1.5,2.1-2.1,3,4.5,0.6,11.1.9,22.2,0.9h15A18.955,18.955,0,0,1,563.588,190.256Zm-89.4-30.6c-1.5,0-3.6-3.3-4.8-6a82.32,82.32,0,0,1-3.6-9.6,55.987,55.987,0,0,1-1.5-13.5,53.053,53.053,0,0,1,13.2-35.1c9-10.2,21.6-17.4,35.7-17.4a42.884,42.884,0,0,1,11.4,1.2c3,0.9,4.8,2.4,4.8,4.5,0,0.9-1.5,3.6-3.9,7.2-5.7,9-16.2,23.1-20.1,28.2-9.6,12.9-16.2,23.4-25.5,35.7C478.087,157.256,475.687,159.656,474.187,159.656Zm80.4,30.6a10.116,10.116,0,0,0-10.2-10.2h-15c-19.2,0-25.8-1.2-31.2-2.7-3.3-.9-4.5-1.8-4.5-3.6,0-.9,1.2-1.8,8.4-12,6.9-9.6,17.7-24.6,32.1-43.8,14.7-19.5,20.1-27.3,20.1-34.2,0-7.8-6.6-15.3-17.1-20.4-7.8-3.9-17.1-5.4-25.2-5.4a69.494,69.494,0,0,0-51.3,22.5,72.333,72.333,0,0,0-19.2,49.2c0,17.7,5.7,34.8,18,47.7,12.9,13.2,23.7,18.3,41.1,21,8.7,1.5,14.4,1.8,28.8,1.8h15A9.867,9.867,0,0,0,554.587,190.256Zm51.9-144.9c-12.9,0-22.5-11.4-22.5-22.8,0-13.5,10.8-22.2,23.1-22.2,12,0,22.8,8.1,22.8,21.6A23.429,23.429,0,0,1,606.485,45.355Zm-49.2,230.1c-9.9,0-18.3-7.2-18.3-18.3,0-5.4,3.3-12,10.5-22.8,12.6-18.6,15.6-23.1,23.4-34.2,9-12.6,12-17.7,12.9-24.3,0.3-1.8.6-7.2,0.6-18v-88.5a20.7,20.7,0,0,1,41.4,0v82.8c0,28.5-.3,31.2-2.1,37.2-3.6,11.7-11.7,22.8-21.6,36.3-5.4,7.2-10.8,14.7-17.1,23.7-9.6,14.1-16.5,21.3-20.1,23.4A17.846,17.846,0,0,1,557.285,275.457Zm49.2-239.1a14.4,14.4,0,0,0,14.4-14.4c0-7.8-6.6-12.6-13.8-12.6-7.5,0-14.1,5.1-14.1,13.2C592.985,29.454,598.685,36.354,606.485,36.354Zm-49.2,230.1a10.113,10.113,0,0,0,5.1-1.5c2.7-1.5,8.4-7.8,17.1-20.7,6.3-9,12-16.8,17.4-24,9.3-12.6,16.8-23.1,20.1-33.6,1.5-5.4,1.8-7.8,1.8-34.5v-82.8a11.7,11.7,0,0,0-23.4,0v88.5c0,11.7-.3,17.4-0.6,19.2-1.2,8.7-4.5,14.4-14.4,28.2-7.8,11.1-10.5,15-23.4,34.2-6.9,10.2-9,14.1-9,17.7A8.979,8.979,0,0,0,557.285,266.457ZM670.68,45.355c-12.9,0-21.6-11.1-21.6-22.5,0-12.6,9.9-22.2,22.8-22.2,14.1,0,22.5,9.9,22.5,21.3C694.38,34.254,683.88,45.355,670.68,45.355Zm14.7,162.9c-7.8,0-12-3.3-19.8-11.1-14.4-14.4-15.9-27-15.9-39l0.6-88.5a21,21,0,1,1,42,0l-0.6,86.1c0,10.8.3,12,5.1,19.5,5.1,7.8,6.6,11.7,6.6,16.2C703.38,201.656,693.78,208.256,685.38,208.256Zm-14.7-171.9a14.866,14.866,0,0,0,14.7-14.4c0-6.6-5.1-12.3-13.5-12.3-7.8,0-13.8,5.7-13.8,13.2C658.08,29.754,663.18,36.354,670.68,36.354Zm14.7,162.9c4.2,0,9-3,9-7.8,0-2.7-1.2-5.4-5.1-11.4-6.3-9.6-6.6-11.4-6.6-24.3l0.6-86.1a12,12,0,1,0-24,0l-0.6,88.5c0,10.2,1.2,20.7,13.2,32.7C677.88,196.856,680.88,199.256,685.38,199.256Zm106.2-28.5h2.7v-16.2c0-15.3-.3-23.4-1.5-30a95.4,95.4,0,0,0-3-9.9c-9.3,12-23.4,32.4-28.5,39.9-5.1,7.8-8.1,13.2-8.1,15.9a12.362,12.362,0,0,0,3.6.3h34.8Zm-40.2,38.1c-15.3,0-22.8-3-30.3-9.3-7.5-6.6-10.8-15.6-10.8-26.1,0-7.2,2.1-14.7,6-22.2a305.484,305.484,0,0,1,23.4-36.3l20.4-26.4-0.6-.3c-2.4-.9-6.9-2.4-6.9-2.4-9.3-2.4-17.7-8.1-17.7-18.9s10.2-19.2,20.4-19.2a55.559,55.559,0,0,1,11.7,1.8c14.1,3,25.8,9.3,37.8,18.9a86.543,86.543,0,0,1,25.5,35.7c4.2,10.8,5.1,17.7,5.4,49.2v17.4h0.9a18.955,18.955,0,0,1,19.2,19.2c0,10.8-8.4,18.9-19.2,18.9h-85.2Zm5.4-29.1a19.477,19.477,0,0,1-8.1-1.5,8.023,8.023,0,0,1-4.5-7.5c0-4.8,3.6-11.4,9.6-21,5.4-8.7,21.3-31.2,30.6-42.6,3.3-3.9,5.7-6.6,6.6-6.6,1.2,0,4.5,4.2,6.3,8.4,2.1,4.8,3.6,8.4,4.5,14.1,1.2,6.6,1.5,15.3,1.5,31.5v10.8c0,7.8-.3,12-1.5,13.2s-5.1,1.2-10.2,1.2h-34.8Zm79.8,20.1a9.868,9.868,0,0,0,10.2-9.9,10.117,10.117,0,0,0-10.2-10.2h-2.7c-2.4,0-7.2,0-7.2-3.9v-22.5c-0.3-31.2-.9-35.7-4.8-46.2a75.558,75.558,0,0,0-22.8-31.8c-10.8-8.7-21.3-14.4-33.9-17.1a52.9,52.9,0,0,0-9.9-1.5c-5.7,0-11.4,4.5-11.4,10.2s5.1,8.7,10.8,10.2a95.689,95.689,0,0,1,9.9,3.3c3.6,1.5,8.1,3.9,8.1,4.8,0,2.7-3.9,6.6-7.2,11.1l-18.6,24a245.226,245.226,0,0,0-22.5,35.1c-3.3,6.3-5.1,12.3-5.1,18,0,7.8,2.4,14.4,7.8,19.2,5.7,4.8,11.7,7.2,24.3,7.2h85.2Zm49.8,8.7a20.367,20.367,0,0,1-20.7-20.7V78.655a101.49,101.49,0,0,1,.6-11.7c1.8-13.5,10.5-18.6,19.8-18.6,6.6,0,12,3.9,15.6,9.3,9.3-4.8,20.7-8.1,31.2-8.1,16.5,0,33.6,6.6,45.3,18.3,10.8,11.1,18.6,29.7,18.6,45.3,0,17.7-8.1,38.1-20.7,57.3h6.3a19.2,19.2,0,0,1,0,38.4h-13.8c-12.6,0-27.9,0-30.3-.3-11.7-1.5-17.7-9-17.7-18,0-8.1,4.8-15,12.3-25.8,14.7-21.3,17.7-27.3,20.4-37.2a44.816,44.816,0,0,0,1.8-12,28,28,0,0,0-8.7-20.1,20.841,20.841,0,0,0-15.9-6.6c-6.9,0-13.5,2.7-17.7,7.5-4.5,5.7-5.7,12.9-5.7,21.3v70.2A20.367,20.367,0,0,1,886.38,208.556Zm0-9a11.528,11.528,0,0,0,11.7-11.7v-70.2c0-10.5.9-18.6,7.8-27,6-7.2,15-10.8,24.6-10.8,8.7,0,16.5,3,22.5,9.3a36.513,36.513,0,0,1,11.1,26.4,47.83,47.83,0,0,1-2.1,14.4c-3,11.1-5.7,17.1-21.6,39.9-7.2,10.2-10.8,15.3-10.8,20.7,0,4.5,3.3,8.1,9.9,9,2.4,0.3,17.1.3,29.1,0.3h13.8a10.2,10.2,0,1,0,0-20.4h-9.6c-8.4,0-11.7,0-12-.6-0.3-.9,3.9-7.5,6.6-11.7,12.3-18.6,20.4-37.8,20.4-54,0-13.5-6.6-29.4-15.9-39-9.9-9.9-24.6-15.6-39-15.6-11.7,0-23.1,4.2-32.4,10.2-1.8,1.2-2.7,2.1-3.3,2.1-0.3,0-.3-2.1-0.6-3.6-1.2-5.4-5.1-9.9-10.5-9.9-5.1,0-9.9,3-10.8,10.8a82.139,82.139,0,0,0-.6,10.5v109.2A11.527,11.527,0,0,0,886.38,199.556Z"/>
</svg>
