<svg xmlns="http://www.w3.org/2000/svg" width="526" height="526" viewBox="0 0 526 526">
<defs>
    <style>
      .cls-1 {
        fill: red;
        fill-rule: evenodd;
      }
    </style>
  </defs>
  <g id="Artboard_1" data-name="Artboard 1">
    <path id="a" class="cls-1" d="M377.32,686.444h6.732V646.052c0-38.148-.748-58.344-3.74-74.8a237.855,237.855,0,0,0-7.48-24.684c-23.188,29.92-58.344,80.784-71.06,99.484-12.716,19.448-20.2,32.912-20.2,39.644,2.244,0.748,5.236.748,8.976,0.748H377.32Zm-100.232,95c-38.148,0-56.848-7.48-75.548-23.188-18.7-16.456-26.928-38.9-26.928-65.076,0-17.952,5.236-36.652,14.96-55.352a761.856,761.856,0,0,1,58.344-90.508l50.864-65.824-1.5-.748c-5.984-2.244-17.2-5.984-17.2-5.984-23.188-5.984-44.132-20.2-44.132-47.125s25.432-47.872,50.864-47.872q10.1,0,29.172,4.488c35.156,7.48,64.328,23.188,94.248,47.125a215.776,215.776,0,0,1,63.58,89.012c10.472,26.928,12.716,44.132,13.464,122.672v43.384h2.244c26.928,0,47.872,20.944,47.872,47.872S516.448,781.44,489.52,781.44H277.088Zm13.464-72.556c-8.228,0-15.708-1.5-20.2-3.74-8.228-4.488-11.22-11.22-11.22-18.7,0-11.968,8.976-28.424,23.936-52.36,13.464-21.692,53.108-77.792,76.3-106.216,8.228-9.724,14.212-16.456,16.456-16.456,2.992,0,11.22,10.472,15.708,20.944,5.236,11.968,8.976,20.944,11.22,35.156,2.992,16.456,3.74,38.148,3.74,78.54V672.98c0,19.448-.748,29.92-3.74,32.912s-12.716,2.992-25.432,2.992H290.552ZM489.52,759c14.212,0,25.432-10.472,25.432-24.684a25.222,25.222,0,0,0-25.432-25.432h-6.732c-5.984,0-17.952,0-17.952-9.724v-56.1c-0.748-77.792-2.244-89.012-11.968-115.192C442.4,498.7,422.2,470.272,396.02,448.58c-26.928-21.692-53.108-35.9-84.524-42.637-10.472-2.244-18.7-3.74-24.684-3.74-14.212,0-28.424,11.22-28.424,25.432s12.716,21.693,26.928,25.433c8.976,2.244,16.456,5.236,24.684,8.228,8.976,3.74,20.2,9.724,20.2,11.968,0,6.732-9.724,16.456-17.952,27.676l-46.376,59.84c-21.692,28.424-41.888,59.84-56.1,87.516-8.228,15.708-12.716,30.668-12.716,44.88,0,19.448,5.984,35.9,19.448,47.872C230.712,753.016,245.672,759,277.088,759H489.52Z" transform="translate(-93 -318)"/>
  </g>
</svg>